<svg width="70" height="40" viewBox="0 0 70 40" fill="none" xmlns="http://www.w3.org/2000/svg">
<path d="M0 0H70V40H0V0Z" fill="url(#paint0_linear_437_177)"/>
<path d="M42.687 18.6823C42.5703 18.6707 42.4303 18.6707 42.302 18.6823C39.5253 18.589 37.3203 16.314 37.3203 13.514C37.3203 10.6557 39.6303 8.33398 42.5003 8.33398C45.3586 8.33398 47.6803 10.6557 47.6803 13.514C47.6686 16.314 45.4636 18.589 42.687 18.6823Z" fill="#FF4F00" stroke="#FF4F00" stroke-width="1.5" stroke-linecap="round" stroke-linejoin="round"/>
<path d="M51.1439 10.666C53.4072 10.666 55.2272 12.4977 55.2272 14.7493C55.2272 16.9543 53.4772 18.751 51.2955 18.8327C51.2022 18.821 51.0972 18.821 50.9922 18.8327" fill="#FF4F00"/>
<path d="M36.8519 22.986C34.0285 24.876 34.0285 27.956 36.8519 29.8343C40.0602 31.981 45.3219 31.981 48.5302 29.8343C51.3535 27.9443 51.3535 24.8643 48.5302 22.986C45.3335 20.851 40.0719 20.851 36.8519 22.986Z" fill="#FF4F00" stroke="#FF4F00" stroke-width="1.5" stroke-linecap="round" stroke-linejoin="round"/>
<path d="M53.3984 29.334C54.2384 29.159 55.0318 28.8206 55.6851 28.319C57.5051 26.954 57.5051 24.7023 55.6851 23.3373C55.0434 22.8473 54.2618 22.5207 53.4334 22.334" fill="#FF4F00"/>
<defs>
<linearGradient id="paint0_linear_437_177" x1="5.21541e-07" y1="20" x2="70" y2="20" gradientUnits="userSpaceOnUse">
<stop stop-color="#FF4F00" stop-opacity="0.15"/>
<stop offset="0.979167" stop-color="white" stop-opacity="0"/>
</linearGradient>
</defs>
</svg>
